<?xml version="1.0" encoding="utf-8"?>
<!-- Generator: Adobe Illustrator 13.0.0, SVG Export Plug-In . SVG Version: 6.00 Build 14948)  -->
<!DOCTYPE svg PUBLIC "-//W3C//DTD SVG 1.1//EN" "http://www.w3.org/Graphics/SVG/1.1/DTD/svg11.dtd">
<svg version="1.1" id="Layer_1" xmlns="http://www.w3.org/2000/svg" xmlns:xlink="http://www.w3.org/1999/xlink" x="0px" y="0px"
	 width="95px" height="95px" viewBox="-23.5 -23.5 95 95" enable-background="new -23.5 -23.5 95 95" xml:space="preserve">
<circle fill="green" cx="24" cy="23.997" r="36"/>
<path fill="#fff" d="M24-17.999c-23.195,0-42,18.803-42,42c0,23.193,18.805,42,42,42c23.197,0,42-18.807,42-42
	C66,0.804,47.197-17.999,24-17.999 M53.73,25.69c-0.059,0.199-0.109,0.408-0.188,0.604c-0.082,0.199-0.195,0.387-0.305,0.574
	c-0.082,0.148-0.152,0.311-0.25,0.451c-0.219,0.334-0.465,0.645-0.75,0.926L34.246,46.239c-1.17,1.178-2.705,1.758-4.242,1.758
	c-1.535,0-3.074-0.58-4.24-1.758c-2.346-2.344-2.346-6.141,0-8.484l7.752-7.758H0c-3.312,0-6-2.689-6-6c0-3.312,2.688-6,6-6h33.516
	l-7.752-7.754c-2.346-2.344-2.346-6.145,0-8.488c2.338-2.342,6.141-2.342,8.482,0l17.992,17.994c0.285,0.283,0.531,0.592,0.75,0.922
	c0.098,0.146,0.168,0.307,0.25,0.455c0.105,0.191,0.223,0.375,0.305,0.576c0.078,0.197,0.129,0.402,0.188,0.605
	c0.053,0.172,0.117,0.336,0.152,0.514c0.152,0.777,0.152,1.574,0,2.352C53.848,25.353,53.783,25.517,53.73,25.69"/>
</svg>
