<?xml version="1.0" ?><!DOCTYPE svg  PUBLIC '-//W3C//DTD SVG 1.1//EN'  'http://www.w3.org/Graphics/SVG/1.1/DTD/svg11.dtd'><svg enable-background="new 0 0 512 512" height="512px" id="Layer_1" version="1.1" viewBox="0 0 512 512" width="512px" xml:space="preserve" xmlns="http://www.w3.org/2000/svg" xmlns:xlink="http://www.w3.org/1999/xlink"><g><circle cx="256" cy="256" fill="#383844" r="256"/><g><path d="M375.37,230.623v158.95c0,6.622-5.377,11.997-11.997,11.997H148.876c-6.64,0-12.017-5.375-12.017-11.997     v-158.95c0-6.638,5.377-12.015,12.017-12.015h214.498C369.993,218.608,375.37,223.985,375.37,230.623z" fill="#F39C12"/><path d="M363.37,218.616h-18.744c6.63,0,12.003,5.375,12.003,12.007v158.943c0,6.63-5.373,12.007-12.003,12.007     h18.744c6.633,0,12.006-5.377,12.006-12.007V230.623C375.376,223.991,370.003,218.616,363.37,218.616z" opacity="0.2"/><path d="M151.484,389.566V230.623c0-6.632,5.374-12.007,12.007-12.007H148.87     c-6.63,0-12.007,5.375-12.007,12.007v158.943c0,6.63,5.377,12.007,12.007,12.007h14.622     C156.858,401.573,151.484,396.196,151.484,389.566z" fill="#FFFFFF" opacity="0.3"/><path d="M209.649,348.358c0,6.06-5.09,10.972-11.37,10.972h-61.417v-98.469h61.417     c6.28,0,11.37,4.912,11.37,10.971V348.358z" fill="#B8CACC"/><path d="M198.279,260.861h-17.066c6.28,0,11.37,4.912,11.37,10.971v76.526c0,6.06-5.09,10.972-11.37,10.972h17.066     c6.28,0,11.37-4.912,11.37-10.972v-76.526C209.649,265.773,204.56,260.861,198.279,260.861z" opacity="0.2"/><rect fill="#FFFFFF" height="98.469" opacity="0.5" width="14.622" x="136.863" y="260.861"/><path d="M197.936,362.373h-61.073v-6.086h61.073c4.557,0,8.26-3.557,8.26-7.929v-76.526     c0-4.372-3.704-7.926-8.26-7.926h-61.073v-6.091h61.073c7.917,0,14.352,6.288,14.352,14.017v76.526     C212.288,356.087,205.853,362.373,197.936,362.373z" opacity="0.2"/><g opacity="0.2"><path d="M209.85,287.908c-24.324,2.697-48.869,2.71-73.19,0.037c0.066-0.62,0.137-1.24,0.203-1.862      c24.188,2.682,48.597,2.695,72.787,0.037C209.716,286.717,209.783,287.313,209.85,287.908z"/></g><g opacity="0.2"><path d="M209.863,311.049c-24.333,2.698-48.885,2.713-73.22,0.038c0.073-0.663,0.146-1.329,0.22-1.995      c24.188,2.685,48.597,2.698,72.787,0.04C209.723,309.77,209.793,310.41,209.863,311.049z"/></g><g opacity="0.2"><path d="M209.85,334.531c-24.333,2.704-48.892,2.717-73.227,0.044c0.08-0.731,0.16-1.464,0.24-2.195      c24.175,2.686,48.573,2.698,72.753,0.044C209.696,333.127,209.773,333.83,209.85,334.531z"/></g><path d="M375.376,235.106c0,6.632-5.375,12.007-12.007,12.007H148.85c-6.632,0-12.007-5.375-12.007-12.007v-4.483     c0-6.632,5.375-12.007,12.007-12.007h214.52c6.632,0,12.007,5.375,12.007,12.007V235.106z" fill="#FFCC00"/><path d="M352.36,236.4h-29.991v-20.299c0-50.325-34.341-73.247-66.25-73.247     c-31.905,0-66.247,22.922-66.247,73.247V236.4h-29.991v-20.299c0-31.427,10.363-58.043,29.968-76.97     c8.89-8.582,19.333-15.227,31.038-19.749c11.207-4.327,23.058-6.52,35.231-6.52s24.028,2.193,35.238,6.52     c11.705,4.521,22.145,11.167,31.039,19.749c19.601,18.926,29.964,45.543,29.964,76.97V236.4z" fill="#B8CACC"/><path d="M323.493,236.4h-2.25v-20.299c0-49.553-33.758-72.123-65.124-72.123     c-31.365,0-65.123,22.57-65.123,72.123V236.4h-2.247v-20.299c0-51.098,34.921-74.37,67.37-74.37     c32.452,0,67.374,23.272,67.374,74.37V236.4z" fill="#616A6B"/><path d="M354.797,236.4h-4.874v-20.299c0-30.75-10.106-56.76-29.224-75.218     c-8.653-8.355-18.823-14.823-30.222-19.227c-10.927-4.22-22.481-6.358-34.358-6.358c-11.87,0-23.428,2.138-34.355,6.358     c-11.401,4.403-21.568,10.872-30.225,19.227c-19.115,18.458-29.222,44.468-29.222,75.218V236.4h-4.877v-20.299     c0-32.104,10.624-59.327,30.715-78.723c9.126-8.81,19.84-15.628,31.852-20.269c11.487-4.435,23.638-6.683,36.111-6.683     c12.477,0,24.625,2.248,36.115,6.683c12.008,4.64,22.725,11.458,31.852,20.269c20.091,19.396,30.711,46.62,30.711,78.723V236.4z" fill="#E2F8FA"/></g></g></svg>